<svg width="169.64" height="56" viewBox="0 0 169.64 56" fill="none" xmlns="http://www.w3.org/2000/svg">
<g clip-path="url(#clip0_318_469)">
<path d="M43.1451 11.173C43.1451 11.7445 42.6532 12.2598 42.0302 12.2598C41.4071 12.2598 40.8637 11.7398 40.8637 11.173C40.8637 10.6061 41.3837 10.1143 42.0302 10.1143C42.6767 10.1143 43.1451 10.6061 43.1451 11.173ZM42.8875 16.5088V27.4614C42.8875 27.7987 42.4986 28.136 42.0349 28.136C41.5711 28.136 41.2057 27.7987 41.2057 27.4614V16.5088C41.2057 16.1481 41.5664 15.8857 42.0349 15.8857C42.5033 15.8857 42.8875 16.1434 42.8875 16.5088Z" fill="white"/>
<path d="M47.188 27.4613C47.188 27.7985 46.7991 28.1358 46.3354 28.1358C45.8435 28.1358 45.5062 27.7985 45.5062 27.4613V16.5086C45.5062 16.1479 45.8435 15.8855 46.3354 15.8855C46.7476 15.8855 47.113 16.1432 47.113 16.5086V17.6985C47.6564 16.6913 48.8463 15.731 50.5843 15.731C53.0718 15.731 55.194 17.9046 55.194 20.5749V27.4613C55.194 27.9016 54.7536 28.1358 54.3414 28.1358C53.9526 28.1358 53.5122 27.9016 53.5122 27.4613V20.5749C53.5122 18.9165 52.06 17.2863 50.2751 17.2863C48.7479 17.2863 47.1926 18.5043 47.1926 20.5749V27.4613H47.188Z" fill="white"/> -->
<path d="M59.3308 24.3275C59.3308 26.0093 59.9539 26.6042 61.7387 26.6042H62.4649C62.9333 26.6042 63.2425 26.9649 63.2425 27.3537C63.2425 27.766 62.9333 28.1314 62.4649 28.1314H61.7387C59.0732 28.1314 57.6491 26.993 57.6491 24.3275V10.6812C57.6491 10.3158 58.0894 10.0581 58.4782 10.0581C58.8905 10.0581 59.3308 10.3158 59.3308 10.6812V15.8858H62.671C63.0083 15.8858 63.2659 16.2231 63.2659 16.5838C63.2659 16.9445 63.0083 17.2818 62.671 17.2818H59.3308V24.3275Z" fill="white"/>
<path d="M73.8294 20.4437C73.8294 22.4393 72.7145 22.5143 71.5761 22.5143H65.725V23.47C65.725 25.5406 67.3834 26.8382 69.6601 26.8382C71.7073 26.8382 72.1992 25.8029 72.766 25.8029C73.1782 25.8029 73.4921 26.2948 73.4921 26.604C73.4921 27.227 72.0165 28.3139 69.6086 28.3139C66.3481 28.3139 64.0432 26.3463 64.0432 23.395V20.4952C64.0432 17.9046 66.2684 15.731 68.9902 15.731C71.5527 15.731 73.8341 17.6985 73.8341 20.4437H73.8294ZM70.9062 21.2729C71.9415 21.2729 72.1992 21.1183 72.1992 20.3922C72.1992 18.7338 70.8781 17.1317 68.9621 17.1317C67.1772 17.1317 65.725 18.5558 65.725 20.2891V21.2729H70.9015H70.9062Z" fill="white"/>
<path d="M80.8232 17.2819C79.1133 17.2819 77.4034 18.706 77.4034 21.0623V27.4569C77.4034 27.7942 77.0427 28.1314 76.5508 28.1314C76.0824 28.1314 75.7216 27.7942 75.7216 27.4569V16.5042C75.7216 16.1435 76.0824 15.8812 76.5508 15.8812C76.9912 15.8812 77.3519 16.1388 77.3519 16.5042V17.7737C77.9234 16.7384 79.1367 15.7266 80.8232 15.7266H81.7273C82.088 15.7266 82.4019 16.0873 82.4019 16.5042C82.4019 16.9211 82.0927 17.2819 81.7273 17.2819H80.8232Z" fill="white"/>
<path d="M82.8937 23.058V20.9874C82.8937 18.0079 84.5755 15.6797 88.4872 15.6797C90.9185 15.6797 92.6284 16.6916 92.6284 17.6988C92.6284 18.3218 92.1084 19.329 91.3073 19.329C90.7358 19.329 90.272 18.6029 88.7448 18.6029C86.9834 18.6029 86.2339 19.4836 86.2339 20.9874V23.058C86.2339 24.5617 86.9834 25.4424 88.7729 25.4424C90.3282 25.4424 90.7171 24.6648 91.3635 24.6648C92.2677 24.6648 92.7877 25.597 92.7877 26.2435C92.7877 27.2788 90.9513 28.3657 88.5153 28.3657C84.6036 28.3657 82.8984 26.0842 82.8984 23.058H82.8937Z" fill="white"/>
<path d="M104.565 20.9358V23.058C104.565 25.8313 101.951 28.3657 98.9484 28.3657C95.9455 28.3657 93.3315 25.8547 93.3315 23.058V20.9358C93.3315 18.1391 95.8706 15.6797 98.9484 15.6797C102.026 15.6797 104.565 18.0642 104.565 20.9358ZM101.225 20.9358C101.225 19.7694 100.19 18.6029 98.9484 18.6029C97.7069 18.6029 96.6716 19.7694 96.6716 20.9358V23.058C96.6716 24.276 97.6835 25.4424 98.9484 25.4424C100.213 25.4424 101.225 24.276 101.225 23.058V20.9358Z" fill="white"/>
<path d="M109.386 27.0727C109.386 27.5927 108.608 28.1361 107.704 28.1361C106.72 28.1361 106.046 27.5927 106.046 27.0727V16.8696C106.046 16.2465 106.72 15.8343 107.704 15.8343C108.505 15.8343 109.18 16.2465 109.18 16.8696V17.6472C109.671 16.6353 110.913 15.6797 112.651 15.6797C115.035 15.6797 117.106 18.0642 117.106 20.9358V27.0727C117.106 27.7707 116.253 28.1361 115.424 28.1361C114.647 28.1361 113.766 27.7754 113.766 27.0727V20.9358C113.766 19.7694 112.754 18.6029 111.513 18.6029C110.449 18.6029 109.39 19.4836 109.39 20.9358V27.0727H109.386Z" fill="white"/>
<path d="M129.478 20.5472C129.478 22.749 128.236 22.852 127.07 22.852H121.814V23.2409C121.814 24.7446 123.032 25.7284 124.845 25.7284C126.554 25.7284 127.252 24.7446 128.03 24.7446C128.808 24.7446 129.3 25.7003 129.3 26.2203C129.3 27.101 127.515 28.3705 124.741 28.3705C121.064 28.3705 118.478 26.2484 118.478 23.0629V20.8611C118.478 18.0644 120.989 15.6846 124.151 15.6846C126.999 15.6846 129.487 17.6802 129.487 20.5519L129.478 20.5472ZM125.594 20.8845C126.137 20.8845 126.344 20.7533 126.344 20.1865C126.344 18.9685 125.308 18.1393 124.067 18.1393C122.9 18.1393 121.814 18.917 121.814 20.1584V20.8845H125.594Z" fill="white"/>
<path d="M130.411 23.058V20.9874C130.411 18.0079 132.092 15.6797 136.004 15.6797C138.44 15.6797 140.145 16.6916 140.145 17.6988C140.145 18.3218 139.625 19.329 138.824 19.329C138.253 19.329 137.789 18.6029 136.262 18.6029C134.5 18.6029 133.751 19.4836 133.751 20.9874V23.058C133.751 24.5617 134.5 25.4424 136.29 25.4424C137.845 25.4424 138.234 24.6648 138.88 24.6648C139.785 24.6648 140.305 25.597 140.305 26.2435C140.305 27.2788 138.468 28.3657 136.032 28.3657C132.121 28.3657 130.411 26.0842 130.411 23.058Z" fill="white"/>
<path d="M144.731 23.9385C144.731 24.9504 145.097 25.3111 146.183 25.3111H147.191C148.146 25.3111 148.615 26.0091 148.615 26.7071C148.615 27.4052 148.146 28.1313 147.191 28.1313H146.183C143.078 28.1313 141.391 26.8617 141.391 23.9385V11.3791C141.391 10.756 142.272 10.3438 143.049 10.3438C143.902 10.3438 144.731 10.756 144.731 11.3791V15.8341H147.786C148.329 15.8341 148.643 16.4572 148.643 17.0521C148.643 17.6471 148.334 18.2701 147.786 18.2701H144.731V23.9432V23.9385Z" fill="white"/>
<path d="M159.464 20.7297V27.0727C159.464 27.6676 158.766 28.1361 157.834 28.1361C156.981 28.1361 156.33 27.6723 156.33 27.0727V26.3232C155.398 27.3866 154.18 28.3703 152.395 28.3703C150.61 28.3703 149.027 27.2835 149.027 24.9271C149.027 21.9477 151.486 21.1185 155.061 21.1185H156.124V20.7812C156.124 19.6663 155.553 18.4015 153.847 18.4015C151.852 18.4015 151.519 19.2025 150.896 19.2025C150.147 19.2025 149.758 18.2984 149.758 17.5442C149.758 16.4808 152.063 15.6797 153.899 15.6797C157.937 15.6797 159.464 18.1157 159.464 20.7297ZM156.124 22.8518H155.735C154.002 22.8518 152.367 23.0345 152.367 24.4821C152.367 25.4378 152.962 25.8781 153.74 25.8781C154.803 25.8781 156.124 24.6601 156.124 23.3906V22.8472V22.8518Z" fill="white"/>
<path d="M167.62 18.6027C166.116 18.6027 164.64 20.0784 164.64 22.4347V27.0678C164.64 27.5878 163.863 28.1312 162.931 28.1312C161.998 28.1312 161.3 27.5878 161.3 27.0678V16.8647C161.3 16.2416 161.975 15.8294 162.931 15.8294C163.76 15.8294 164.434 16.2416 164.434 16.8647V17.9281C164.954 16.8132 166.196 15.6748 167.62 15.6748H168.421C169.044 15.6748 169.639 16.3494 169.639 17.1224C169.639 17.8953 169.044 18.598 168.421 18.598H167.62V18.6027Z" fill="white"/>
<path d="M40.9523 41.22V40.0394C40.9523 38.873 41.6128 37.9595 43.0791 37.9595C44.016 37.9595 44.6344 38.3764 44.6344 38.6762C44.6344 38.8308 44.4891 39.0276 44.3158 39.0276C44.105 39.0276 43.9176 38.62 43.1166 38.62C42.1562 38.62 41.6737 39.1587 41.6737 40.0394V41.22C41.6737 42.1147 42.1609 42.6535 43.1306 42.6535C43.9785 42.6535 44.1565 42.2365 44.3767 42.2365C44.5735 42.2365 44.7093 42.4239 44.7093 42.5879C44.7093 42.8877 44.0722 43.314 43.1025 43.314C41.6362 43.314 40.9663 42.4192 40.9663 41.22H40.9523Z" fill="white"/>
<path d="M50.7005 40.0207V41.22C50.7005 42.3115 49.7214 43.314 48.5971 43.314C47.4728 43.314 46.5125 42.3209 46.5125 41.22V40.0207C46.5125 38.9198 47.4494 37.9595 48.5971 37.9595C49.7448 37.9595 50.7005 38.887 50.7005 40.0207ZM49.9838 40.0207C49.9838 39.3133 49.3654 38.62 48.5971 38.62C47.8288 38.62 47.2292 39.3133 47.2292 40.0207V41.22C47.2292 41.9601 47.8335 42.6535 48.5971 42.6535C49.3607 42.6535 49.9838 41.9601 49.9838 41.22V40.0207Z" fill="white"/>
<path d="M56.2565 39.9879C56.2565 39.1962 55.6849 38.62 55.001 38.62C54.3639 38.62 53.6987 39.1259 53.6987 40.0207V42.9533C53.6987 43.0985 53.5347 43.239 53.3333 43.239C53.1318 43.239 52.9819 43.0938 52.9819 42.9533V38.2921C52.9819 38.1375 53.1365 38.0297 53.3333 38.0297C53.5207 38.0297 53.6752 38.1375 53.6752 38.2921V38.798C53.9188 38.367 54.4154 37.9595 55.1415 37.9595C55.8676 37.9595 56.4439 38.4092 56.7062 39.0604C57.0903 38.3108 57.7415 37.9595 58.3833 37.9595C59.3296 37.9595 60.2337 38.709 60.2337 40.0207V42.9533C60.2337 43.0985 60.0791 43.239 59.8683 43.239C59.6809 43.239 59.517 43.0938 59.517 42.9533V40.0207C59.517 39.0932 58.8658 38.62 58.2615 38.62C57.6244 38.62 56.9732 39.1494 56.9732 39.9739V42.9627C56.9732 43.1594 56.7858 43.239 56.6078 43.239C56.4439 43.239 56.2565 43.1641 56.2565 42.9627V39.9879Z" fill="white"/>
<path d="M66.6568 39.9645C66.6568 40.8124 66.1836 40.8452 65.6964 40.8452H63.2042V41.2528C63.2042 42.1335 63.9116 42.6863 64.8813 42.6863C65.7527 42.6863 65.9635 42.2459 66.2024 42.2459C66.3804 42.2459 66.5116 42.4567 66.5116 42.5879C66.5116 42.8549 65.8838 43.314 64.8579 43.314C63.4712 43.314 62.4875 42.4755 62.4875 41.22V39.9879C62.4875 38.887 63.4338 37.9595 64.5909 37.9595C65.6824 37.9595 66.6521 38.798 66.6521 39.9645H66.6568ZM65.4107 40.3158C65.851 40.3158 65.9635 40.2503 65.9635 39.9411C65.9635 39.2337 65.4013 38.5544 64.5862 38.5544C63.8273 38.5544 63.2089 39.1587 63.2089 39.8989V40.3158H65.4154H65.4107Z" fill="white"/>
<path d="M71.0088 38.62C70.2827 38.62 69.5519 39.2243 69.5519 40.2315V42.9533C69.5519 43.0985 69.3973 43.239 69.1865 43.239C68.9897 43.239 68.8351 43.0938 68.8351 42.9533V38.2921C68.8351 38.1375 68.9897 38.0297 69.1865 38.0297C69.3739 38.0297 69.5285 38.1375 69.5285 38.2921V38.8308C69.7721 38.3905 70.2874 37.9595 71.0041 37.9595H71.3883C71.5429 37.9595 71.674 38.1141 71.674 38.2874C71.674 38.4607 71.5429 38.62 71.3883 38.62H71.0041H71.0088Z" fill="white"/>
<path d="M73.2062 41.22V40.0394C73.2062 38.873 73.8667 37.9595 75.333 37.9595C76.27 37.9595 76.8883 38.3764 76.8883 38.6762C76.8883 38.8308 76.7431 39.0276 76.5698 39.0276C76.359 39.0276 76.1716 38.62 75.3705 38.62C74.4102 38.62 73.9276 39.1587 73.9276 40.0394V41.22C73.9276 42.1147 74.4148 42.6535 75.3846 42.6535C76.2325 42.6535 76.4105 42.2365 76.6307 42.2365C76.8274 42.2365 76.9633 42.4239 76.9633 42.5879C76.9633 42.8877 76.3215 43.314 75.3565 43.314C73.8902 43.314 73.2203 42.4192 73.2203 41.22H73.2062Z" fill="white"/>
<path d="M79.8534 36.0152C79.8534 36.2588 79.6426 36.4789 79.3802 36.4789C79.1179 36.4789 78.8837 36.2588 78.8837 36.0152C78.8837 35.7716 79.1038 35.5654 79.3802 35.5654C79.6566 35.5654 79.8534 35.7762 79.8534 36.0152ZM79.7456 38.2872V42.9484C79.7456 43.0936 79.5817 43.2342 79.3802 43.2342C79.1788 43.2342 79.0289 43.0889 79.0289 42.9484V38.2872C79.0289 38.1326 79.1835 38.0249 79.3802 38.0249C79.577 38.0249 79.7456 38.1326 79.7456 38.2872Z" fill="white"/>
<path d="M86.2154 40.0207V41.22C86.2154 42.3115 85.2363 43.314 84.112 43.314C82.9877 43.314 82.0273 42.3209 82.0273 41.22V40.0207C82.0273 38.9198 82.9643 37.9595 84.112 37.9595C85.2597 37.9595 86.2154 38.887 86.2154 40.0207ZM85.4986 40.0207C85.4986 39.3133 84.8803 38.62 84.112 38.62C83.3437 38.62 82.7441 39.3133 82.7441 40.0207V41.22C82.7441 41.9601 83.3484 42.6535 84.112 42.6535C84.8756 42.6535 85.4986 41.9601 85.4986 41.22V40.0207Z" fill="white"/>
<path d="M95.7764 39.9645C95.7764 40.8124 95.3033 40.8452 94.8161 40.8452H92.3238V41.2528C92.3238 42.1335 93.0312 42.6863 94.0009 42.6863C94.8723 42.6863 95.0831 42.2459 95.322 42.2459C95.5 42.2459 95.6312 42.4567 95.6312 42.5879C95.6312 42.8549 95.0035 43.314 93.9775 43.314C92.5909 43.314 91.6071 42.4755 91.6071 41.22V39.9879C91.6071 38.887 92.5534 37.9595 93.7105 37.9595C94.802 37.9595 95.7717 38.798 95.7717 39.9645H95.7764ZM94.5303 40.3158C94.9707 40.3158 95.0831 40.2503 95.0831 39.9411C95.0831 39.2337 94.5209 38.5544 93.7058 38.5544C92.9469 38.5544 92.3285 39.1587 92.3285 39.8989V40.3158H94.535H94.5303Z" fill="white"/>
<path d="M97.5847 42.8079L99.051 40.6014L97.6175 38.4605C97.5941 38.4184 97.5613 38.3715 97.5613 38.32C97.5613 38.142 97.8142 37.9546 98.0016 37.9546C98.0672 37.9546 98.1656 37.978 98.2218 38.0623L99.5241 40.0814L100.836 38.0623C100.878 37.9874 100.981 37.9546 101.047 37.9546C101.225 37.9546 101.487 38.1326 101.487 38.32C101.487 38.3622 101.464 38.409 101.431 38.4605L99.9879 40.6014L101.464 42.8079C101.487 42.8407 101.506 42.8969 101.506 42.9625C101.506 43.1264 101.276 43.3138 101.075 43.3138C100.995 43.3138 100.911 43.281 100.864 43.2014L99.5194 41.1401L98.1843 43.2014C98.1281 43.281 98.0391 43.3138 97.9548 43.3138C97.7908 43.3138 97.5378 43.1358 97.5378 42.9625C97.5378 42.9062 97.5613 42.85 97.58 42.8079H97.5847Z" fill="white"/>
<path d="M104.279 41.6181C104.279 42.3349 104.546 42.5879 105.305 42.5879H105.615C105.811 42.5879 105.947 42.7425 105.947 42.9064C105.947 43.0844 105.816 43.239 105.615 43.239H105.305C104.172 43.239 103.563 42.7518 103.563 41.6181V35.8092C103.563 35.6546 103.75 35.5469 103.914 35.5469C104.092 35.5469 104.279 35.6593 104.279 35.8092V38.025H105.704C105.844 38.025 105.956 38.1656 105.956 38.3202C105.956 38.4748 105.844 38.6153 105.704 38.6153H104.279V41.6135V41.6181Z" fill="white"/>
<path d="M111.831 39.9645C111.831 40.8124 111.357 40.8452 110.87 40.8452H108.378V41.2528C108.378 42.1335 109.081 42.6863 110.055 42.6863C110.926 42.6863 111.137 42.2459 111.376 42.2459C111.554 42.2459 111.685 42.4567 111.685 42.5879C111.685 42.8549 111.058 43.314 110.032 43.314C108.645 43.314 107.661 42.4755 107.661 41.22V39.9879C107.661 38.887 108.608 37.9595 109.765 37.9595C110.856 37.9595 111.826 38.798 111.826 39.9645H111.831ZM110.585 40.3158C111.025 40.3158 111.137 40.2503 111.137 39.9411C111.137 39.2337 110.575 38.5544 109.76 38.5544C109.001 38.5544 108.383 39.1587 108.383 39.8989V40.3158H110.589H110.585Z" fill="white"/>
<path d="M116.187 38.62C115.461 38.62 114.73 39.2243 114.73 40.2315V42.9533C114.73 43.0985 114.576 43.239 114.37 43.239C114.164 43.239 114.018 43.0938 114.018 42.9533V38.2921C114.018 38.1375 114.173 38.0297 114.37 38.0297C114.557 38.0297 114.712 38.1375 114.712 38.2921V38.8308C114.955 38.3905 115.471 37.9595 116.187 37.9595H116.571C116.726 37.9595 116.857 38.1141 116.857 38.2874C116.857 38.4607 116.726 38.62 116.571 38.62H116.187Z" fill="white"/>
<path d="M119.593 36.0152C119.593 36.2588 119.383 36.4789 119.12 36.4789C118.858 36.4789 118.624 36.2588 118.624 36.0152C118.624 35.7716 118.844 35.5654 119.12 35.5654C119.397 35.5654 119.593 35.7762 119.593 36.0152ZM119.486 38.2872V42.9484C119.486 43.0936 119.322 43.2342 119.12 43.2342C118.919 43.2342 118.769 43.0889 118.769 42.9484V38.2872C118.769 38.1326 118.924 38.0249 119.12 38.0249C119.317 38.0249 119.486 38.1326 119.486 38.2872Z" fill="white"/>
<path d="M125.955 40.0207V41.22C125.955 42.3115 124.976 43.314 123.851 43.314C122.727 43.314 121.767 42.3209 121.767 41.22V40.0207C121.767 38.9198 122.704 37.9595 123.851 37.9595C124.999 37.9595 125.955 38.887 125.955 40.0207ZM125.238 40.0207C125.238 39.3133 124.62 38.62 123.851 38.62C123.083 38.62 122.483 39.3133 122.483 40.0207V41.22C122.483 41.9601 123.088 42.6535 123.851 42.6535C124.615 42.6535 125.238 41.9601 125.238 41.22V40.0207Z" fill="white"/>
<path d="M130.41 38.62C129.684 38.62 128.958 39.2243 128.958 40.2315V42.9533C128.958 43.0985 128.803 43.239 128.592 43.239C128.395 43.239 128.241 43.0938 128.241 42.9533V38.2921C128.241 38.1375 128.395 38.0297 128.592 38.0297C128.78 38.0297 128.934 38.1375 128.934 38.2921V38.8308C129.178 38.3905 129.693 37.9595 130.41 37.9595H130.794C130.949 37.9595 131.08 38.1141 131.08 38.2874C131.08 38.4607 130.949 38.62 130.794 38.62H130.41Z" fill="white"/>
<path d="M19.6005 28.0001C16.3212 22.6034 13.0045 18.0874 13.0045 18.0874C13.0045 18.0874 9.69249 22.6034 6.40857 28.0001C9.69249 33.3921 13.0045 37.908 13.0045 37.908C13.0045 37.908 16.3165 33.3921 19.6005 28.0001Z" fill="white"/>
<path d="M19.6005 27.9998C16.3212 33.3918 13.0045 37.9078 13.0045 37.9078C13.0045 37.9078 9.69249 33.3918 6.40857 27.9998C3.19023 33.2934 0 39.435 0 42.9906C0 50.1721 5.82299 55.9951 13.0045 55.9951C20.186 55.9951 26.009 50.1721 26.009 42.9906C26.009 39.435 22.8188 33.2934 19.5958 27.9951L19.6005 27.9998Z" fill="#ADC9B8"/>
<path d="M13.0045 0C5.82299 0 0 5.82299 0 13.0045C0 16.5601 3.19023 22.7017 6.41325 28C9.69717 22.6033 13.0092 18.0873 13.0092 18.0873C13.0092 18.0873 16.3212 22.6033 19.6052 28C22.8235 22.7064 26.0184 16.5648 26.0184 13.0045C26.009 5.82299 20.186 0 13.0045 0Z" fill="#FF5C35"/>
</g>
<defs>
<clipPath id="clip0_318_469">
<rect width="169.64" height="56" fill="white"/>
</clipPath>
</defs>
</svg>