<svg width="24" height="23" xmlns="http://www.w3.org/2000/svg">
 <defs>
  <filter id="filter0_d_403_3900">
   <feBlend in2="BackgroundImageFix"/>
   <feBlend in="SourceGraphic" in2="effect1_dropShadow_403_3900"/>
  </filter>
 </defs>

  <g filter="url(#filter0_d_403_3900)" id="svg_1">
   <rect fill="#EFF4F1" height="19.92" id="svg_2" rx="2" width="20.72" x="1.7" y="2.45"/>
   <path d="m0.77,1.91c0.08,-0.82 0.77,-1.45 1.59,-1.45l1.74,0l0,6.86c0,1.05 -0.85,1.9 -1.9,1.9c-1.12,0 -1.99,-0.96 -1.9,-2.07l0.48,-5.24z" fill="#8BA293" id="svg_3"/>
   <path d="m8.07,0.46l3.98,0l0,6.77c0,1.1 -0.89,1.99 -1.99,1.99c-1.1,0 -1.99,-0.89 -1.99,-1.99l0,-6.77z" fill="#8BA293" id="svg_4"/>
   <path d="m16.04,0.46l3.98,0l0,6.77c0,1.1 -0.89,1.99 -1.99,1.99c-1.1,0 -1.99,-0.89 -1.99,-1.99l0,-6.77z" fill="#8BA293" id="svg_5"/>
   <path d="m4.09,0.46l3.98,0l0,6.77c0,1.1 -0.89,1.99 -1.99,1.99c-1.1,0 -1.99,-0.89 -1.99,-1.99l0,-6.77z" fill="#FFA692" id="svg_6"/>
   <path d="m12.06,0.46l3.98,0l0,6.77c0,1.1 -0.89,1.99 -1.99,1.99c-1.1,0 -1.99,-0.89 -1.99,-1.99l0,-6.77z" fill="#FFA692" id="svg_7"/>
   <path d="m20.03,0.46l1.73,0c0.83,0 1.51,0.63 1.59,1.45l0.48,5.24c0.1,1.12 -0.77,2.07 -1.9,2.07c-1.04,0 -1.9,-0.85 -1.9,-1.9l0,-6.86z" fill="#FFA692" id="svg_8"/>
   <path d="m7.28,13.61c0,-0.88 0.71,-1.59 1.59,-1.59l6.38,0c0.88,0 1.59,0.72 1.59,1.59l0,8.77l-9.56,0l0,-8.77z" fill="#8BA293" id="svg_9"/>
  </g>

</svg>