<svg width="79" height="82" viewBox="0 0 79 82" fill="none" xmlns="http://www.w3.org/2000/svg">
<g filter="url(#filter0_d_403_3923)">
<mask id="mask0_403_3923" style="mask-type:alpha" maskUnits="userSpaceOnUse" x="24" y="23" width="31" height="31">
<circle cx="39.9084" cy="38.5" r="15" fill="white"/>
</mask>
<g mask="url(#mask0_403_3923)">
<circle cx="39.9084" cy="38.5" r="15" fill="#8BA293"/>
<g clip-path="url(#clip0_403_3923)">
<path d="M41.887 44.5C50.3844 41.9163 52.887 52 57.387 39C57.787 30.2 50.887 25.6667 47.387 24.5C45.2204 26.5 40.087 30.6 36.887 31C32.887 31.5 37.387 38 33.387 39.5C29.387 41 32.387 47.3885 41.887 44.5Z" fill="#EFF4F1"/>
<path d="M38.887 49C31.687 46.2 27.887 47.5 26.387 49C36.387 57.4 46.5537 53.8333 50.387 51C49.887 51.1667 46.087 51.8 38.887 49Z" fill="#EFF4F1"/>
</g>
</g>
<path d="M45.188 20.5982C43.487 20.3617 41.8546 20.5194 40.3394 21.436C37.4206 23.2052 36.3714 25.9903 37.1204 30.0307C38.2325 33.1515 40.0135 35.852 42.1176 38.351C43.4241 39.9041 44.4104 39.8866 45.6168 38.2751C47.8524 35.7819 49.5591 32.9589 50.6854 29.7738C50.7169 29.5227 50.7398 29.2688 50.7798 29.0177C51.423 24.9597 49.1245 21.4973 45.188 20.5982Z" fill="#FFA692"/>
<circle cx="43.887" cy="28" r="3" fill="#EFF4F1"/>
</g>
<defs>
<filter id="filter0_d_403_3923" x="-4.0916" y="-3" width="88" height="88" filterUnits="userSpaceOnUse" color-interpolation-filters="sRGB">
<feFlood flood-opacity="0" result="BackgroundImageFix"/>
<feColorMatrix in="SourceAlpha" type="matrix" values="0 0 0 0 0 0 0 0 0 0 0 0 0 0 0 0 0 0 127 0" result="hardAlpha"/>
<feOffset dy="4"/>
<feGaussianBlur stdDeviation="12"/>
<feComposite in2="hardAlpha" operator="out"/>
<feColorMatrix type="matrix" values="0 0 0 0 0.101961 0 0 0 0 0.133333 0 0 0 0 0.156863 0 0 0 0.2 0"/>
<feBlend mode="normal" in2="BackgroundImageFix" result="effect1_dropShadow_403_3923"/>
<feBlend mode="normal" in="SourceGraphic" in2="effect1_dropShadow_403_3923" result="shape"/>
</filter>
<clipPath id="clip0_403_3923">
<rect width="28" height="30" fill="white" transform="translate(27.9084 23.5)"/>
</clipPath>
</defs>
</svg>
