<svg width="24" height="28" viewBox="0 0 24 28" fill="none" xmlns="http://www.w3.org/2000/svg">
<g id="Group 72">
<path id="Rectangle 69" d="M0.5 26.2668C0.5 20.3389 5.30548 15.5334 11.2333 15.5334H12.7667C18.6945 15.5334 23.5 20.3389 23.5 26.2668C23.5 27.1136 22.8135 27.8001 21.9667 27.8001H2.03333C1.1865 27.8001 0.5 27.1136 0.5 26.2668Z" fill="#EFF4F1"/>
<path id="Intersect" fill-rule="evenodd" clip-rule="evenodd" d="M17.5758 16.6686C16.3208 18.7689 14.2907 20.1334 11.9998 20.1334C9.70892 20.1334 7.6788 18.7689 6.42383 16.6686C7.8705 15.9423 9.50407 15.5334 11.2331 15.5334H12.7665C14.4955 15.5334 16.1291 15.9423 17.5758 16.6686Z" fill="#8BA293"/>
<circle id="Ellipse 48" cx="11.9997" cy="8.63328" r="8.43333" fill="#FFA692"/>
</g>
</svg>
