<?xml version="1.0"?>
<svg width="25" height="24" xmlns="http://www.w3.org/2000/svg">
 <defs>
  <filter color-interpolation-filters="sRGB" filterUnits="userSpaceOnUse" height="88" id="filter0_d_403_3912" width="88" x="-1.03" y="-5">
   <feBlend in2="BackgroundImageFix"/>
   <feBlend in="SourceGraphic" in2="effect1_dropShadow_403_3912"/>
  </filter>
 </defs>
  <g filter="url(#filter0_d_403_3912)" id="svg_1">
   <rect fill="#FFA692" height="7.68" id="svg_2" rx="1.1" transform="matrix(0.623117, 0.296138, -0.296138, 0.623117, 2.35522, -7.32489)" width="7.68" x="25.87" y="2.03"/>
   <ellipse cx="11.82" cy="6.62" fill="#FFA692" id="svg_3" rx="3.78" ry="3.78"/>
   <path d="m5,5.98l17.77,0c0.97,0 1.7,0.9 1.48,1.85l-1.57,6.81c-0.16,0.69 -0.77,1.17 -1.48,1.17l-13.93,0l-2.27,-9.83z" fill="#EFF4F1" id="svg_4"/>
   <path d="m22.4,18.29l-12.58,0c-1.05,0 -1.97,-0.72 -2.21,-1.74l-3.37,-14.15l-3.03,0" id="svg_5" stroke="#8BA293" stroke-linecap="round" stroke-linejoin="round" stroke-width="2.19"/>
   <ellipse cx="10.29" cy="20.19" fill="#8BA293" id="svg_6" rx="1.51" ry="1.51"/>
   <ellipse cx="19.37" cy="20.19" fill="#8BA293" id="svg_7" rx="1.51" ry="1.51"/>
  </g>
</svg>