<svg width="30" height="32" viewBox="0 0 30 32" fill="none" xmlns="http://www.w3.org/2000/svg">
<g id="Group 79">
<path id="Union" fill-rule="evenodd" clip-rule="evenodd" d="M17.3348 21.0076C17.3348 19.8306 17.9033 18.7454 18.6759 17.8574C20.2567 16.0408 21.2138 13.6672 21.2138 11.07C21.2138 5.35681 16.5823 0.725342 10.8691 0.725342C5.15589 0.725342 0.524414 5.35681 0.524414 11.07C0.524414 13.6674 1.48166 16.0412 3.06261 17.8578C3.83537 18.7458 4.40394 19.8311 4.40394 21.0082V24.001C4.40394 26.1435 6.14074 27.8803 8.28319 27.8803H13.4555C15.598 27.8803 17.3348 26.1435 17.3348 24.001V21.0076Z" fill="#EFF4F1"/>
<rect id="Rectangle 75" x="3.11035" y="24.2317" width="15.517" height="2.58617" rx="1.29309" fill="#8BA293"/>
<rect id="Rectangle 76" x="4.4043" y="26.2175" width="12.9309" height="2.58617" rx="1.29309" fill="#8BA293"/>
<rect id="Rectangle 77" x="5.69727" y="28.6885" width="10.3447" height="2.58617" rx="1.29309" fill="#8BA293"/>
<path id="Vector 3" d="M6.99023 13.0098L9.57641 15.596L15.3953 9.7771" stroke="#8BA293" stroke-width="2.2" stroke-linecap="round" stroke-linejoin="round"/>
<path id="Line 23" d="M28.4023 10.991H25.2158" stroke="#FFA692" stroke-width="2.2" stroke-linecap="round"/>
<path id="Line 24" d="M26.8086 3.81226L24.1063 5.50086" stroke="#FFA692" stroke-width="2.2" stroke-linecap="round"/>
<path id="Line 26" d="M26.8086 18.1699L24.1063 16.4813" stroke="#FFA692" stroke-width="2.2" stroke-linecap="round"/>
</g>
</svg>
